<svg xmlns="http://www.w3.org/2000/svg" viewBox="0 0 512 512"><linearGradient id="a" gradientUnits="userSpaceOnUse" x1="256" y1="514" x2="256" y2="2" gradientTransform="matrix(1 0 0 -1 0 514)"><stop offset="0" stop-color="#2af598"/><stop offset="1" stop-color="#009efd"/></linearGradient><path d="M363.272 512H148.728C66.719 512 0 445.281 0 363.272V148.728C0 66.719 66.719 0 148.728 0h214.545C445.281 0 512 66.719 512 148.728v214.545C512 445.281 445.281 512 363.272 512zM148.728 40C88.775 40 40 88.775 40 148.728v214.545C40 423.225 88.775 472 148.728 472h214.545C423.225 472 472 423.225 472 363.272V148.728C472 88.775 423.225 40 363.272 40H148.728zM256 394c-76.094 0-138-61.906-138-138s61.906-138 138-138 138 61.906 138 138-61.906 138-138 138zm0-236c-54.037 0-98 43.963-98 98s43.963 98 98 98 98-43.963 98-98-43.963-98-98-98zm120-42c0 11.046 8.954 20 20 20s20-8.954 20-20-8.954-20-20-20-20 8.954-20 20z" fill="url(#a)"/></svg>